<svg width="10" height="7" viewBox="0 0 10 7" fill="none" xmlns="http://www.w3.org/2000/svg">
<path d="M9.59643 0.767351C9.46086 0.622454 9.277 0.541055 9.0853 0.541055C8.8936 0.541055 8.70974 0.622454 8.57417 0.767351L4.99552 4.59323L1.41687 0.76735C1.28052 0.626559 1.0979 0.548655 0.908344 0.550416C0.718787 0.552177 0.537459 0.633463 0.403417 0.776765C0.269374 0.920068 0.193342 1.11392 0.191695 1.31658C0.190048 1.51923 0.262918 1.71447 0.394611 1.86024L4.48439 6.23257C4.61996 6.37746 4.80382 6.45886 4.99552 6.45886C5.18722 6.45886 5.37108 6.37746 5.50665 6.23257L9.59643 1.86024C9.73197 1.7153 9.80811 1.51874 9.80811 1.3138C9.80811 1.10885 9.73197 0.912292 9.59643 0.767351Z" fill="black"/>
</svg>
