<svg width="28" height="28" viewBox="0 0 28 28" fill="none" xmlns="http://www.w3.org/2000/svg">
<path d="M1.5 9.3125H26.5L25.1953 23.6578C25.1248 24.4342 24.7665 25.1563 24.1909 25.6821C23.6154 26.208 22.864 26.4997 22.0844 26.5H5.91563C5.136 26.4997 4.38464 26.208 3.80906 25.6821C3.23348 25.1563 2.87524 24.4342 2.80469 23.6578L1.5 9.3125Z" stroke="#600624" stroke-width="3" stroke-linejoin="round"/>
<path d="M7.75 12.4375V7.75C7.75 6.0924 8.40848 4.50268 9.58058 3.33058C10.7527 2.15848 12.3424 1.5 14 1.5C15.6576 1.5 17.2473 2.15848 18.4194 3.33058C19.5915 4.50268 20.25 6.0924 20.25 7.75V12.4375" stroke="#600624" stroke-width="3" stroke-linecap="round"/>
</svg>
