<svg width="17" height="10" viewBox="0 0 17 10" fill="none" xmlns="http://www.w3.org/2000/svg">
<path d="M8.99844 9.24372L16.3099 1.68453C16.4319 1.5584 16.5 1.39083 16.5 1.21657C16.5 1.04231 16.4319 0.874742 16.3099 0.748613L16.3016 0.740474C16.2424 0.679117 16.1712 0.63026 16.0923 0.596874C16.0133 0.563488 15.9283 0.546271 15.8424 0.546271C15.7565 0.546271 15.6715 0.563488 15.5925 0.596874C15.5136 0.63026 15.4424 0.679117 15.3832 0.740474L8.49862 7.85884L1.61681 0.740472C1.55764 0.679116 1.48642 0.630259 1.40747 0.596873C1.32853 0.563487 1.24352 0.54627 1.15761 0.54627C1.0717 0.54627 0.986687 0.563487 0.907744 0.596873C0.828802 0.630259 0.757579 0.679116 0.698409 0.740472L0.690146 0.748612C0.56809 0.87474 0.500001 1.04231 0.500001 1.21657C0.500001 1.39082 0.56809 1.5584 0.690146 1.68452L8.00156 9.24372C8.06586 9.3102 8.14319 9.36313 8.22887 9.39929C8.31455 9.43545 8.40679 9.4541 8.5 9.4541C8.59321 9.4541 8.68545 9.43545 8.77113 9.39929C8.85681 9.36313 8.93415 9.3102 8.99844 9.24372Z" fill="white"/>
</svg>
