<svg width="139" height="137" viewBox="0 0 139 137" fill="none" xmlns="http://www.w3.org/2000/svg">
<path d="M109.695 98.5789L139 127.462L129.323 137L100.018 108.117C89.481 116.425 76.1179 121.396 61.5841 121.396C27.5897 121.396 0 94.2032 0 60.698C0 27.1927 27.5897 0 61.5841 0C95.5785 0 123.168 27.1927 123.168 60.698C123.168 75.0227 118.125 88.1935 109.695 98.5789ZM95.9664 93.5747C104.334 85.0756 109.483 73.4823 109.483 60.698C109.483 34.6147 88.0481 13.4884 61.5841 13.4884C35.12 13.4884 13.6853 34.6147 13.6853 60.698C13.6853 86.7812 35.12 107.907 61.5841 107.907C74.555 107.907 86.3176 102.832 94.9407 94.5856L95.9664 93.5747Z" fill="white"/>
</svg>
