<svg width="26" height="24" viewBox="0 0 26 24" fill="none" xmlns="http://www.w3.org/2000/svg">
<path d="M0.25 2.08329C0.25 1.30089 0.884263 0.666626 1.66667 0.666626H24.3333C25.1157 0.666626 25.75 1.30089 25.75 2.08329C25.75 2.8657 25.1157 3.49996 24.3333 3.49996H1.66667C0.884262 3.49996 0.25 2.8657 0.25 2.08329ZM0.25 12C0.25 11.2176 0.884263 10.5833 1.66667 10.5833H15.8333C16.6157 10.5833 17.25 11.2176 17.25 12C17.25 12.7824 16.6157 13.4166 15.8333 13.4166H1.66667C0.884264 13.4166 0.25 12.7824 0.25 12ZM0.25 21.9166C0.25 21.1342 0.884263 20.5 1.66667 20.5H24.3333C25.1157 20.5 25.75 21.1342 25.75 21.9166C25.75 22.699 25.1157 23.3333 24.3333 23.3333H1.66667C0.884262 23.3333 0.25 22.699 0.25 21.9166Z" fill="white" fill-opacity="0.5"/>
</svg>
