<svg width="58" height="75" viewBox="0 0 58 75" fill="none" xmlns="http://www.w3.org/2000/svg">
<path d="M29 0.5C21.3114 0.508744 13.9402 3.57446 8.50354 9.02457C3.06687 14.4747 0.00872219 21.8641 0 29.5717C0 54.4479 26.3636 73.2355 27.4874 74.0217C27.9307 74.333 28.4588 74.5 29 74.5C29.5412 74.5 30.0693 74.333 30.5126 74.0217C31.6364 73.2355 58 54.4479 58 29.5717C57.9913 21.8641 54.9331 14.4747 49.4965 9.02457C44.0598 3.57446 36.6886 0.508744 29 0.5ZM29 19.0002C31.0857 19.0002 33.1245 19.6202 34.8587 20.7818C36.5929 21.9434 37.9446 23.5945 38.7427 25.5262C39.5409 27.4579 39.7497 29.5834 39.3428 31.6341C38.9359 33.6848 37.9316 35.5685 36.4568 37.0469C34.982 38.5254 33.1029 39.5322 31.0573 39.9401C29.0117 40.348 26.8914 40.1387 24.9644 39.3385C23.0375 38.5384 21.3905 37.1834 20.2318 35.4449C19.073 33.7065 18.4545 31.6626 18.4545 29.5717C18.4545 26.768 19.5656 24.0791 21.5432 22.0965C23.5209 20.114 26.2032 19.0002 29 19.0002Z" fill="#600624"/>
</svg>
