<svg width="8" height="14" viewBox="0 0 8 14" fill="none" xmlns="http://www.w3.org/2000/svg">
<path d="M7.19717 6.60444L1.21087 0.802024C1.11098 0.705159 0.978278 0.651123 0.84028 0.651123C0.702282 0.651123 0.56958 0.705159 0.469695 0.802024L0.46325 0.808581C0.41466 0.855539 0.375969 0.912062 0.34953 0.974712C0.323091 1.03736 0.309456 1.10483 0.309456 1.17301C0.309456 1.24119 0.323091 1.30865 0.34953 1.3713C0.375969 1.43395 0.41466 1.49047 0.46325 1.53743L6.10045 7.0011L0.463249 12.4626C0.414659 12.5095 0.375968 12.5661 0.349529 12.6287C0.32309 12.6914 0.309456 12.7588 0.309456 12.827C0.309456 12.8952 0.32309 12.9626 0.349529 13.0253C0.375968 13.0879 0.414659 13.1445 0.463249 13.1914L0.469695 13.198C0.569579 13.2949 0.702281 13.3489 0.84028 13.3489C0.978278 13.3489 1.11098 13.2949 1.21087 13.198L7.19717 7.39557C7.24981 7.34455 7.29173 7.28317 7.32036 7.21518C7.349 7.14718 7.36377 7.07398 7.36377 7C7.36377 6.92603 7.349 6.85283 7.32036 6.78483C7.29173 6.71683 7.24981 6.65546 7.19717 6.60444Z" fill="#666666"/>
</svg>
