<svg width="8" height="14" viewBox="0 0 8 14" fill="none" xmlns="http://www.w3.org/2000/svg">
<path d="M0.404884 7.39556L6.39119 13.198C6.49107 13.2948 6.62377 13.3489 6.76177 13.3489C6.89977 13.3489 7.03247 13.2948 7.13236 13.198L7.1388 13.1914C7.18739 13.1445 7.22608 13.0879 7.25252 13.0253C7.27896 12.9626 7.2926 12.8952 7.2926 12.827C7.2926 12.7588 7.27896 12.6913 7.25252 12.6287C7.22608 12.566 7.18739 12.5095 7.1388 12.4626L1.5016 6.9989L7.1388 1.53742C7.18739 1.49047 7.22608 1.43394 7.25252 1.37129C7.27896 1.30864 7.2926 1.24118 7.2926 1.173C7.2926 1.10482 7.27896 1.03735 7.25252 0.974703C7.22608 0.912053 7.18739 0.85553 7.1388 0.808572L7.13236 0.802014C7.03247 0.70515 6.89977 0.651113 6.76177 0.651113C6.62377 0.651113 6.49107 0.70515 6.39119 0.802014L0.404884 6.60443C0.352237 6.65545 0.310324 6.71683 0.281686 6.78482C0.253048 6.85282 0.238281 6.92602 0.238281 7C0.238281 7.07397 0.253048 7.14717 0.281686 7.21517C0.310324 7.28317 0.352237 7.34454 0.404884 7.39556Z" fill="#666666"/>
</svg>
