<svg width="23" height="23" viewBox="0 0 23 23" fill="none" xmlns="http://www.w3.org/2000/svg">
<path d="M1.63948 8.01807H21.3605L20.3313 19.3342C20.2757 19.9467 19.9931 20.5163 19.539 20.9311C19.085 21.3459 18.4923 21.576 17.8773 21.5763H5.12271C4.5077 21.576 3.915 21.3459 3.46096 20.9311C3.00692 20.5163 2.72433 19.9467 2.66867 19.3342L1.63948 8.01807Z" stroke="#FFF8E3" stroke-width="1.9721" stroke-linejoin="round"/>
<path d="M6.56973 10.4832V6.78548C6.56973 5.4779 7.08916 4.22387 8.01376 3.29926C8.93837 2.37466 10.1924 1.85522 11.5 1.85522C12.8076 1.85522 14.0616 2.37466 14.9862 3.29926C15.9108 4.22387 16.4302 5.4779 16.4302 6.78548V10.4832" stroke="#FFF8E3" stroke-width="1.9721" stroke-linecap="round"/>
</svg>
