<svg width="21" height="20" viewBox="0 0 21 20" fill="none" xmlns="http://www.w3.org/2000/svg">
<path d="M14.1616 10.5599C15.1331 9.7998 15.8422 8.75741 16.1903 7.57781C16.5383 6.39821 16.508 5.14004 16.1036 3.97836C15.6992 2.81667 14.9407 1.80924 13.9338 1.0962C12.9268 0.38317 11.7214 0 10.4853 0C9.24917 0 8.04378 0.38317 7.03682 1.0962C6.02987 1.80924 5.27141 2.81667 4.86699 3.97836C4.46256 5.14004 4.43227 6.39821 4.78033 7.57781C5.12839 8.75741 5.83749 9.7998 6.80898 10.5599C5.14431 11.2232 3.69183 12.3233 2.60638 13.743C1.52093 15.1626 0.843209 16.8486 0.645458 18.6212C0.631143 18.7506 0.6426 18.8816 0.679174 19.0066C0.715748 19.1316 0.776722 19.2482 0.858616 19.3498C1.02401 19.5549 1.26457 19.6863 1.52738 19.7151C1.79019 19.7438 2.05371 19.6676 2.25999 19.5031C2.46626 19.3386 2.59839 19.0994 2.6273 18.838C2.84489 16.9116 3.76853 15.1324 5.22175 13.8404C6.67496 12.5484 8.55587 11.8342 10.5051 11.8342C12.4544 11.8342 14.3353 12.5484 15.7885 13.8404C17.2417 15.1324 18.1653 16.9116 18.3829 18.838C18.4099 19.0801 18.5261 19.3038 18.709 19.4658C18.892 19.6277 19.1289 19.7166 19.3738 19.7151H19.4829C19.7426 19.6854 19.98 19.5547 20.1434 19.3517C20.3067 19.1486 20.3827 18.8896 20.3549 18.631C20.1562 16.8534 19.4748 15.1631 18.3838 13.7413C17.2927 12.3194 15.8332 11.2197 14.1616 10.5599ZM10.4853 9.86025C9.70135 9.86025 8.93502 9.62906 8.28319 9.19591C7.63137 8.76277 7.12333 8.14712 6.82333 7.42683C6.52333 6.70653 6.44484 5.91394 6.59778 5.14928C6.75071 4.38462 7.12822 3.68224 7.68255 3.13095C8.23688 2.57966 8.94314 2.20423 9.71202 2.05213C10.4809 1.90003 11.2779 1.97809 12.0021 2.27644C12.7264 2.5748 13.3454 3.08005 13.781 3.72829C14.2165 4.37654 14.449 5.13867 14.449 5.91831C14.449 6.96378 14.0314 7.96643 13.288 8.70568C12.5447 9.44494 11.5365 9.86025 10.4853 9.86025Z" fill="#FFF8E3"/>
</svg>
