<svg width="21" height="20" viewBox="0 0 21 20" fill="none" xmlns="http://www.w3.org/2000/svg">
<path d="M6.35858 0.278809H14.6414C17.7968 0.278809 20.3605 2.84254 20.3605 5.99791V14.2807C20.3605 15.7975 19.758 17.2522 18.6854 18.3247C17.6129 19.3973 16.1582 19.9998 14.6414 19.9998H6.35858C3.20321 19.9998 0.639481 17.4361 0.639481 14.2807V5.99791C0.639481 4.48111 1.24203 3.02643 2.31457 1.95389C3.3871 0.881355 4.84178 0.278809 6.35858 0.278809ZM6.16137 2.25091C5.21991 2.25091 4.317 2.62491 3.65129 3.29062C2.98558 3.95633 2.61158 4.85923 2.61158 5.8007V14.4779C2.61158 16.4402 4.19913 18.0277 6.16137 18.0277H14.8386C15.7801 18.0277 16.683 17.6537 17.3487 16.988C18.0144 16.3223 18.3884 15.4194 18.3884 14.4779V5.8007C18.3884 3.83845 16.8009 2.25091 14.8386 2.25091H6.16137ZM15.6768 3.72999C16.0037 3.72999 16.3172 3.85985 16.5483 4.091C16.7795 4.32215 16.9093 4.63566 16.9093 4.96255C16.9093 5.28945 16.7795 5.60296 16.5483 5.83411C16.3172 6.06526 16.0037 6.19512 15.6768 6.19512C15.3499 6.19512 15.0364 6.06526 14.8052 5.83411C14.5741 5.60296 14.4442 5.28945 14.4442 4.96255C14.4442 4.63566 14.5741 4.32215 14.8052 4.091C15.0364 3.85985 15.3499 3.72999 15.6768 3.72999ZM10.5 5.20906C11.8076 5.20906 13.0616 5.7285 13.9862 6.6531C14.9108 7.57771 15.4302 8.83174 15.4302 10.1393C15.4302 11.4469 14.9108 12.7009 13.9862 13.6255C13.0616 14.5501 11.8076 15.0696 10.5 15.0696C9.19241 15.0696 7.93838 14.5501 7.01378 13.6255C6.08917 12.7009 5.56974 11.4469 5.56974 10.1393C5.56974 8.83174 6.08917 7.57771 7.01378 6.6531C7.93838 5.7285 9.19241 5.20906 10.5 5.20906ZM10.5 7.18117C9.71544 7.18117 8.96302 7.49283 8.40826 8.04759C7.8535 8.60235 7.54184 9.35477 7.54184 10.1393C7.54184 10.9239 7.8535 11.6763 8.40826 12.2311C8.96302 12.7858 9.71544 13.0975 10.5 13.0975C11.2845 13.0975 12.037 12.7858 12.5917 12.2311C13.1465 11.6763 13.4581 10.9239 13.4581 10.1393C13.4581 9.35477 13.1465 8.60235 12.5917 8.04759C12.037 7.49283 11.2845 7.18117 10.5 7.18117Z" fill="#FFF8E3"/>
</svg>
