<svg width="23" height="18" viewBox="0 0 23 18" fill="none" xmlns="http://www.w3.org/2000/svg">
<path d="M21.9578 8.6539L19.704 3.41317C19.6464 3.27785 19.5502 3.16239 19.4273 3.08118C19.3044 2.99996 19.1602 2.9566 19.0128 2.95648H16.7589V1.45913C16.7589 1.26056 16.6798 1.07014 16.5389 0.929732C16.398 0.789328 16.2069 0.710449 16.0077 0.710449H1.7334C1.53415 0.710449 1.34306 0.789328 1.20217 0.929732C1.06128 1.07014 0.982124 1.26056 0.982124 1.45913V14.1866C0.982124 14.3852 1.06128 14.5756 1.20217 14.716C1.34306 14.8564 1.53415 14.9353 1.7334 14.9353H3.34113C3.51414 15.5697 3.89182 16.1297 4.41591 16.529C4.94 16.9283 5.58137 17.1446 6.24106 17.1446C6.90076 17.1446 7.54213 16.9283 8.06622 16.529C8.59031 16.1297 8.96799 15.5697 9.14099 14.9353H13.859C14.032 15.5697 14.4097 16.1297 14.9338 16.529C15.4579 16.9283 16.0992 17.1446 16.7589 17.1446C17.4186 17.1446 18.06 16.9283 18.5841 16.529C19.1082 16.1297 19.4859 15.5697 19.6589 14.9353H21.2666C21.4659 14.9353 21.6569 14.8564 21.7978 14.716C21.9387 14.5756 22.0179 14.3852 22.0179 14.1866V8.94589C22.0177 8.84553 21.9973 8.74623 21.9578 8.6539ZM16.7589 4.45383H18.5169L20.1247 8.19721H16.7589V4.45383ZM6.24106 15.684C5.94389 15.684 5.65338 15.5962 5.40629 15.4316C5.1592 15.2671 4.96661 15.0332 4.85289 14.7596C4.73916 14.486 4.7094 14.185 4.76738 13.8945C4.82536 13.604 4.96846 13.3372 5.1786 13.1278C5.38873 12.9184 5.65646 12.7758 5.94793 12.718C6.2394 12.6603 6.54151 12.6899 6.81607 12.8032C7.09062 12.9166 7.32529 13.1085 7.49039 13.3547C7.6555 13.601 7.74362 13.8905 7.74362 14.1866C7.74362 14.5837 7.58531 14.9646 7.30353 15.2454C7.02175 15.5262 6.63957 15.684 6.24106 15.684ZM13.859 13.4379H9.14099C8.96799 12.8035 8.59031 12.2435 8.06622 11.8442C7.54213 11.4449 6.90076 11.2286 6.24106 11.2286C5.58137 11.2286 4.94 11.4449 4.41591 11.8442C3.89182 12.2435 3.51414 12.8035 3.34113 13.4379H2.48468V2.2078H15.2564V11.6112C14.9143 11.809 14.6148 12.0723 14.375 12.3857C14.1352 12.6992 13.9598 13.0568 13.859 13.4379ZM16.7589 15.684C16.4618 15.684 16.1713 15.5962 15.9242 15.4316C15.6771 15.2671 15.4845 15.0332 15.3708 14.7596C15.257 14.486 15.2273 14.185 15.2853 13.8945C15.3432 13.604 15.4863 13.3372 15.6965 13.1278C15.9066 12.9184 16.1743 12.7758 16.4658 12.718C16.7573 12.6603 17.0594 12.6899 17.3339 12.8032C17.6085 12.9166 17.8432 13.1085 18.0083 13.3547C18.1734 13.601 18.2615 13.8905 18.2615 14.1866C18.2615 14.5837 18.1032 14.9646 17.8214 15.2454C17.5396 15.5262 17.1574 15.684 16.7589 15.684ZM20.5153 13.4379H19.6589C19.4927 12.7967 19.118 12.2285 18.5933 11.8221C18.0686 11.4157 17.4235 11.1941 16.7589 11.1919V9.69456H20.5153V13.4379Z" fill="#FFF8E3" stroke="#FFF8E3" stroke-width="0.262947"/>
</svg>
