<svg width="23" height="22" viewBox="0 0 23 22" fill="none" xmlns="http://www.w3.org/2000/svg">
<path fill-rule="evenodd" clip-rule="evenodd" d="M17.4265 14.9613C18.9436 13.0974 19.6586 10.7528 19.426 8.40447C19.1934 6.05611 18.0307 3.88038 16.1745 2.31992C14.3182 0.759459 11.9078 -0.068514 9.4336 0.00444217C6.95942 0.0773984 4.60734 1.0458 2.85586 2.71265C1.10285 4.38064 0.08327 6.62283 0.00487895 8.98229C-0.0735121 11.3418 0.79519 13.6409 2.43396 15.4112C4.07273 17.1816 6.35822 18.2898 8.82471 18.5102C11.2912 18.7305 13.753 18.0463 15.7085 16.5971L15.7609 16.6493L20.9219 21.5684C21.0349 21.6761 21.1691 21.7616 21.3168 21.8199C21.4645 21.8782 21.6228 21.9082 21.7827 21.9082C21.9425 21.9082 22.1008 21.8782 22.2485 21.8199C22.3962 21.7616 22.5304 21.6761 22.6435 21.5684C22.7565 21.4607 22.8462 21.3328 22.9073 21.1921C22.9685 21.0514 23 20.9005 23 20.7482C23 20.5959 22.9685 20.445 22.9073 20.3043C22.8462 20.1635 22.7565 20.0357 22.6435 19.9279L17.4812 15.0099L17.4265 14.9613ZM14.9007 4.35314C15.5876 4.99714 16.1339 5.76436 16.5081 6.61056C16.8823 7.45676 17.077 8.36519 17.0809 9.28344C17.0849 10.2017 16.8979 11.1116 16.531 11.9607C16.164 12.8098 15.6243 13.5812 14.9429 14.2305C14.2615 14.8798 13.4519 15.3941 12.5609 15.7438C11.6699 16.0935 10.715 16.2716 9.75137 16.2679C8.78773 16.2641 7.83442 16.0786 6.9464 15.722C6.05838 15.3654 5.25324 14.8449 4.57742 14.1903C3.22684 12.8822 2.47341 11.1185 2.48125 9.28344C2.48909 7.44839 3.25757 5.69062 4.61928 4.39303C5.981 3.09544 7.82563 2.36315 9.75137 2.35568C11.6771 2.34821 13.5279 3.06616 14.9007 4.35314Z" fill="white" fill-opacity="0.5"/>
<path d="M17.0387 14.6456L16.7365 15.0168L17.0942 15.3349L17.1425 15.3779L22.2985 20.2899C22.3641 20.3524 22.4147 20.4252 22.4488 20.5036C22.4828 20.5819 22.5 20.665 22.5 20.7482C22.5 20.8314 22.4828 20.9145 22.4488 20.9928C22.4147 21.0712 22.3641 21.144 22.2985 21.2065C22.2329 21.269 22.1538 21.3198 22.065 21.3548C21.9761 21.3899 21.8801 21.4082 21.7827 21.4082C21.6852 21.4082 21.5892 21.3899 21.5004 21.3548C21.4116 21.3198 21.3325 21.269 21.2669 21.2065C21.2668 21.2065 21.2668 21.2065 21.2668 21.2065L16.1099 16.2912L16.0616 16.2431L15.7567 15.9391L15.4108 16.1954C13.5556 17.5703 11.216 18.2218 8.8692 18.0121C6.52249 17.8025 4.35307 16.7484 2.80088 15.0716C1.24938 13.3955 0.430691 11.2236 0.504603 8.99889C0.578519 6.77414 1.53988 4.65498 3.20052 3.07487L3.20055 3.07484C4.86045 1.49515 7.09411 0.573644 9.44833 0.504225C11.8026 0.434805 14.0926 1.22298 15.8527 2.70265C17.6122 4.18174 18.7091 6.23916 18.9285 8.45375C19.1478 10.6681 18.4742 12.882 17.0387 14.6456ZM16.9654 6.40835C16.5636 5.49967 15.9777 4.67743 15.2427 3.98837C13.7743 2.6118 11.7995 1.84773 9.74943 1.85568C7.6993 1.86364 5.73098 2.64302 4.27435 4.03106C2.81692 5.41986 1.9897 7.30642 1.98126 9.28131C1.97282 11.2562 2.78391 13.1492 4.22956 14.5494C4.95273 15.2499 5.81299 15.8057 6.76009 16.186C7.70715 16.5663 8.72307 16.7639 9.74943 16.7678C10.7758 16.7718 11.7933 16.5822 12.7436 16.2093C13.6938 15.8363 14.5587 15.2872 15.2878 14.5925C16.017 13.8977 16.5959 13.0709 16.99 12.159C17.3841 11.2472 17.5851 10.269 17.5809 9.28131C17.5767 8.29359 17.3673 7.31709 16.9654 6.40835Z" stroke="white" stroke-opacity="0.5"/>
</svg>
